<?xml version="1.0" standalone="no"?><!DOCTYPE svg PUBLIC "-//W3C//DTD SVG 1.1//EN" "http://www.w3.org/Graphics/SVG/1.1/DTD/svg11.dtd"><svg t="1677922984939" class="icon" viewBox="0 0 1024 1024" version="1.1" xmlns="http://www.w3.org/2000/svg" p-id="24909" xmlns:xlink="http://www.w3.org/1999/xlink" width="200" height="200"><path d="M735 513c-59.83 0-116.08-23.3-158.39-65.61C534.3 405.08 511 348.83 511 289s23.3-116.08 65.61-158.39C618.92 88.3 675.17 65 735 65s116.08 23.3 158.39 65.61C935.7 172.92 959 229.17 959 289s-23.3 116.08-65.61 158.39C851.08 489.7 794.83 513 735 513z m0-384c-88.22 0-160 71.78-160 160s71.78 160 160 160 160-71.78 160-160-71.78-160-160-160z" p-id="24910"></path><path d="M712.83 376.89v-36.33h-43.36c-9.38 0-14.06-4.28-14.06-12.89 0.77-7.03 5.46-11.32 14.06-12.89h43.36v-19.92h-43.36c-9.38 0-14.06-4.28-14.06-12.89 0.77-7.03 5.46-11.32 14.06-12.89h24.61l-37.5-52.73c-3.92-3.11-5.47-7.42-4.69-12.89 0.77-13.28 8.2-20.69 22.27-22.27 7.03 0.79 12.89 3.92 17.58 9.38l43.36 62.11 43.36-62.11c3.9-5.46 9.76-8.59 17.58-9.38 13.28 1.57 20.69 8.99 22.27 22.27 0 5.47-1.57 9.78-4.69 12.89l-37.5 52.73h24.61c7.8 1.57 12.49 5.86 14.06 12.89-0.79 8.61-5.47 12.89-14.06 12.89h-43.36v19.92h43.36c7.8 1.57 12.49 5.86 14.06 12.89-0.79 8.61-5.47 12.89-14.06 12.89h-43.36v36.33c-0.79 13.29-8.2 19.92-22.27 19.92-14.85 0-22.27-6.63-22.27-19.92zM96 960c-17.67 0-32-14.33-32-32V224c0-17.67 14.33-32 32-32s32 14.33 32 32v704c0 17.67-14.33 32-32 32z" p-id="24911"></path><path d="M64 928c0-17.67 14.33-32 32-32h704c17.67 0 32 14.33 32 32s-14.33 32-32 32H96c-17.67 0-32-14.33-32-32zM256 832h-64V672c0-17.6 14.4-32 32-32s32 14.4 32 32v160zM448 832h-64V352c0-17.6 14.4-32 32-32s32 14.4 32 32v480zM640 832h-64V544c0-17.6 14.4-32 32-32s32 14.4 32 32v288z" p-id="24912"></path></svg>